<svg xmlns="http://www.w3.org/2000/svg" width="7.71" height="10" viewBox="0 0 7.71 10">
  <g id="place" transform="translate(-48.886)">
    <g id="Group_35" data-name="Group 35" transform="translate(48.886)">
      <g id="Group_34" data-name="Group 34" transform="translate(0)">
        <path id="Path_17" data-name="Path 17" d="M55.9,1.739a3.747,3.747,0,0,0-6.326,0,4.207,4.207,0,0,0-.448,3.721,3.214,3.214,0,0,0,.559.968l2.8,3.45a.323.323,0,0,0,.507,0l2.8-3.449a3.217,3.217,0,0,0,.558-.966A4.208,4.208,0,0,0,55.9,1.739Zm-.177,3.478a2.52,2.52,0,0,1-.44.755l0,0L52.741,9.111,50.194,5.972a2.522,2.522,0,0,1-.44-.758,3.48,3.48,0,0,1,.372-3.078,3.1,3.1,0,0,1,5.23,0A3.48,3.48,0,0,1,55.727,5.217Z" transform="translate(-48.886)" fill="#c1c1c1"/>
      </g>
    </g>
    <g id="Group_37" data-name="Group 37" transform="translate(50.391 1.808)">
      <g id="Group_36" data-name="Group 36">
        <path id="Path_18" data-name="Path 18" d="M158.1,106.219a2.35,2.35,0,1,0,2.35,2.35A2.352,2.352,0,0,0,158.1,106.219Zm0,3.86a1.511,1.511,0,1,1,1.511-1.51A1.512,1.512,0,0,1,158.1,110.079Z" transform="translate(-155.754 -106.219)" fill="#c1c1c1"/>
      </g>
    </g>
  </g>
</svg>
